# File exported by Houdini 16.0.736 (www.sidefx.com)
# 64 points
# 128 vertices
# 32 primitives
# Bounds: [-0.300000012, 0, -0.300000012] to [0.300000012, 1, 0.300000012]
g 
v 0 1 0
v 0 1 0
v 0 1 0
v 0 1 0
v 0 1 0
v 0 1 0
v 0 1 0
v 0 1 0
v 0 1 0
v 0 1 0
v 0 1 0
v 0 1 0
v 0 1 0
v 0 1 0
v 0 1 0
v 0 1 0
v 0 1 0
v 0 1 0
v 0 1 0
v 0 1 0
v 0 1 0
v 0 1 0
v 0 1 0
v 0 1 0
v 0 1 0
v 0 1 0
v 0 1 0
v 0 1 0
v 0 1 0
v 0 1 0
v 0 1 0
v 0 1 0
v 0.300000012 0 0
v 0.294235587 0 -0.0585271008
v 0.277163863 0 -0.114805043
v 0.249440894 0 -0.166671082
v 0.212132037 0 -0.212132037
v 0.166671067 0 -0.249440908
v 0.114805035 0 -0.277163863
v 0.058527071 0 -0.294235617
v -1.3113417e-08 0 -0.300000012
v -0.0585271008 0 -0.294235587
v -0.114805058 0 -0.277163863
v -0.166671112 0 -0.249440864
v -0.212132037 0 -0.212132037
v -0.249440908 0 -0.166671067
v -0.277163893 0 -0.114804991
v -0.294235617 0 -0.0585270934
v -0.300000012 0 2.6226834e-08
v -0.294235587 0 0.0585271493
v -0.277163863 0 0.114805035
v -0.249440864 0 0.166671097
v -0.212132007 0 0.212132081
v -0.166671008 0 0.249440938
v -0.114804946 0 0.277163923
v -0.0585271157 0 0.294235587
v 3.57746432e-09 0 0.300000012
v 0.0585271269 0 0.294235587
v 0.114805087 0 0.277163833
v 0.166671127 0 0.249440849
v 0.212132111 0 0.212131962
v 0.249440894 0 0.166671097
v 0.277163893 0 0.114805035
v 0.294235617 0 0.058527071
vn 0.957353055 0.287205905 0.0314300992
vn 0.957826257 0.287347853 -2.13454655e-07
vn 0.939421952 0.287347913 -0.186862677
vn 0.945089519 0.287205905 -0.155943975
vn 0.945089519 0.287205905 -0.155943975
vn 0.939421952 0.287347913 -0.186862677
vn 0.884916067 0.287347883 -0.366544127
vn 0.896506786 0.287205935 -0.337325245
vn 0.896506786 0.287205935 -0.337325245
vn 0.884916067 0.287347883 -0.366544127
vn 0.796403408 0.287347853 -0.532139778
vn 0.813471735 0.287205994 -0.505743444
vn 0.813471735 0.287205994 -0.505743444
vn 0.796403408 0.287347853 -0.532139778
vn 0.677285433 0.287347913 -0.677285433
vn 0.699175417 0.287205935 -0.654726267
vn 0.699175417 0.287205935 -0.654726267
vn 0.677285433 0.287347913 -0.677285433
vn 0.532139719 0.287347913 -0.796403468
vn 0.55801028 0.287205964 -0.778548121
vn 0.55801028 0.287205964 -0.778548121
vn 0.532139719 0.287347913 -0.796403468
vn 0.366544247 0.287347853 -0.884916067
vn 0.395400971 0.287205964 -0.872451007
vn 0.395400971 0.287205964 -0.872451007
vn 0.366544247 0.287347853 -0.884916067
vn 0.186862633 0.287347913 -0.939421952
vn 0.217596859 0.287205935 -0.932825983
vn 0.217596859 0.287205935 -0.932825983
vn 0.186862633 0.287347913 -0.939421952
vn -2.42562095e-07 0.287347853 -0.957826197
vn 0.0314300805 0.287205935 -0.957352996
vn 0.0314300805 0.287205935 -0.957352996
vn -2.42562095e-07 0.287347853 -0.957826197
vn -0.186862662 0.287347913 -0.939421833
vn -0.155943945 0.287205935 -0.945089519
vn -0.155943945 0.287205935 -0.945089519
vn -0.186862662 0.287347913 -0.939421833
vn -0.366544276 0.287347883 -0.884916067
vn -0.337325245 0.287205935 -0.896506727
vn -0.337325245 0.287205935 -0.896506727
vn -0.366544276 0.287347883 -0.884916067
vn -0.532139897 0.287347913 -0.796403348
vn -0.505743623 0.287205935 -0.813471556
vn -0.505743623 0.287205935 -0.813471556
vn -0.532139897 0.287347913 -0.796403348
vn -0.677285373 0.287347913 -0.677285433
vn -0.654726207 0.287205935 -0.699175417
vn -0.654726207 0.287205935 -0.699175417
vn -0.677285373 0.287347913 -0.677285433
vn -0.796403468 0.287347913 -0.532139778
vn -0.778548062 0.287205935 -0.55801028
vn -0.778548062 0.287205935 -0.55801028
vn -0.796403468 0.287347913 -0.532139778
vn -0.884916067 0.287347883 -0.366544247
vn -0.872451007 0.287205935 -0.395400941
vn -0.872451007 0.287205935 -0.395400941
vn -0.884916067 0.287347883 -0.366544247
vn -0.939421952 0.287347943 -0.186862558
vn -0.932826042 0.287205994 -0.21759674
vn -0.932826042 0.287205994 -0.21759674
vn -0.939421952 0.287347943 -0.186862558
vn -0.957826197 0.287347883 2.3285962e-07
vn -0.957352996 0.287205935 -0.0314300656
vn -0.957352996 0.287205935 -0.0314300656
vn -0.957826197 0.287347883 2.3285962e-07
vn -0.939421833 0.287347883 0.186862782
vn -0.945089459 0.287205935 0.155944034
vn -0.945089459 0.287205935 0.155944034
vn -0.939421833 0.287347883 0.186862782
vn -0.884916008 0.287347913 0.366544396
vn -0.896506667 0.287205905 0.337325484
vn -0.896506667 0.287205905 0.337325484
vn -0.884916008 0.287347913 0.366544396
vn -0.796403408 0.287347913 0.532139778
vn -0.813471675 0.287205935 0.505743563
vn -0.813471675 0.287205935 0.505743563
vn -0.796403408 0.287347913 0.532139778
vn -0.677285373 0.287347913 0.677285552
vn -0.699175417 0.287205935 0.654726267
vn -0.699175417 0.287205935 0.654726267
vn -0.677285373 0.287347913 0.677285552
vn -0.532139599 0.287347913 0.796403587
vn -0.558010101 0.287205935 0.7785483
vn -0.558010101 0.287205935 0.7785483
vn -0.532139599 0.287347913 0.796403587
vn -0.366544038 0.287347943 0.884916186
vn -0.395401031 0.287205994 0.872451007
vn -0.395401031 0.287205994 0.872451007
vn -0.366544038 0.287347943 0.884916186
vn -0.186862469 0.287347913 0.939421952
vn -0.217596278 0.287205905 0.932826102
vn -0.217596278 0.287205905 0.932826102
vn -0.186862469 0.287347913 0.939421952
vn 0 0.287347913 0.957826197
vn -0.0314303823 0.287205964 0.957353055
vn -0.0314303823 0.287205964 0.957353055
vn 0 0.287347913 0.957826197
vn 0.186862841 0.287347883 0.939421833
vn 0.155944079 0.287205964 0.945089519
vn 0.155944079 0.287205964 0.945089519
vn 0.186862841 0.287347883 0.939421833
vn 0.366544425 0.287347913 0.884916008
vn 0.337325543 0.287205994 0.896506667
vn 0.337325543 0.287205994 0.896506667
vn 0.366544425 0.287347913 0.884916008
vn 0.532139957 0.287347853 0.796403229
vn 0.505743623 0.287205935 0.813471556
vn 0.505743623 0.287205935 0.813471556
vn 0.532139957 0.287347853 0.796403229
vn 0.677285433 0.287347913 0.677285433
vn 0.654726207 0.287205935 0.699175477
vn 0.654726207 0.287205935 0.699175477
vn 0.677285433 0.287347913 0.677285433
vn 0.796403348 0.287347913 0.532139957
vn 0.778548181 0.287205964 0.558010221
vn 0.778548181 0.287205964 0.558010221
vn 0.796403348 0.287347913 0.532139957
vn 0.884916067 0.287347883 0.366544247
vn 0.872451007 0.287205964 0.395401031
vn 0.872451007 0.287205964 0.395401031
vn 0.884916067 0.287347883 0.366544247
vn 0.939421952 0.287347913 0.186862409
vn 0.932826042 0.287205964 0.217596531
vn 0.932826042 0.287205964 0.217596531
vn 0.939421952 0.287347913 0.186862409
vn 0.957826257 0.287347853 -2.13454655e-07
vn 0.957353055 0.287205905 0.0314300992
g Cone
f 1//1 33//2 34//3 2//4
f 2//5 34//6 35//7 3//8
f 3//9 35//10 36//11 4//12
f 4//13 36//14 37//15 5//16
f 5//17 37//18 38//19 6//20
f 6//21 38//22 39//23 7//24
f 7//25 39//26 40//27 8//28
f 8//29 40//30 41//31 9//32
f 9//33 41//34 42//35 10//36
f 10//37 42//38 43//39 11//40
f 11//41 43//42 44//43 12//44
f 12//45 44//46 45//47 13//48
f 13//49 45//50 46//51 14//52
f 14//53 46//54 47//55 15//56
f 15//57 47//58 48//59 16//60
f 16//61 48//62 49//63 17//64
f 17//65 49//66 50//67 18//68
f 18//69 50//70 51//71 19//72
f 19//73 51//74 52//75 20//76
f 20//77 52//78 53//79 21//80
f 21//81 53//82 54//83 22//84
f 22//85 54//86 55//87 23//88
f 23//89 55//90 56//91 24//92
f 24//93 56//94 57//95 25//96
f 25//97 57//98 58//99 26//100
f 26//101 58//102 59//103 27//104
f 27//105 59//106 60//107 28//108
f 28//109 60//110 61//111 29//112
f 29//113 61//114 62//115 30//116
f 30//117 62//118 63//119 31//120
f 31//121 63//122 64//123 32//124
f 32//125 64//126 33//127 1//128
