# File exported by Houdini 16.0.736 (www.sidefx.com)
# 66 points
# 200 vertices
# 50 primitives
# Bounds: [-1.125, 0.22857143, 0] to [1.12500012, 1.37142861, 0]
g 
v -1.125 0.22857143 0
v -0.899999976 0.22857143 0
v -0.675000012 0.22857143 0
v -0.449999988 0.22857143 0
v -0.225000024 0.22857143 0
v 0 0.22857143 0
v 0.225000024 0.22857143 0
v 0.450000048 0.22857143 0
v 0.675000072 0.22857143 0
v 0.899999976 0.22857143 0
v 1.12500012 0.22857143 0
v -1.125 0.45714286 0
v -0.899999976 0.45714286 0
v -0.675000012 0.45714286 0
v -0.449999988 0.45714286 0
v -0.225000024 0.45714286 0
v 0 0.45714286 0
v 0.225000024 0.45714286 0
v 0.450000048 0.45714286 0
v 0.675000072 0.45714286 0
v 0.899999976 0.45714286 0
v 1.12500012 0.45714286 0
v -1.125 0.685714304 0
v -0.899999976 0.685714304 0
v -0.675000012 0.685714304 0
v -0.449999988 0.685714304 0
v -0.225000024 0.685714304 0
v 0 0.685714304 0
v 0.225000024 0.685714304 0
v 0.450000048 0.685714304 0
v 0.675000072 0.685714304 0
v 0.899999976 0.685714304 0
v 1.12500012 0.685714304 0
v -1.125 0.914285719 0
v -0.899999976 0.914285719 0
v -0.675000012 0.914285719 0
v -0.449999988 0.914285719 0
v -0.225000024 0.914285719 0
v 0 0.914285719 0
v 0.225000024 0.914285719 0
v 0.450000048 0.914285719 0
v 0.675000072 0.914285719 0
v 0.899999976 0.914285719 0
v 1.12500012 0.914285719 0
v -1.125 1.14285719 0
v -0.899999976 1.14285719 0
v -0.675000012 1.14285719 0
v -0.449999988 1.14285719 0
v -0.225000024 1.14285719 0
v 0 1.14285719 0
v 0.225000024 1.14285719 0
v 0.450000048 1.14285719 0
v 0.675000072 1.14285719 0
v 0.899999976 1.14285719 0
v 1.12500012 1.14285719 0
v -1.125 1.37142861 0
v -0.899999976 1.37142861 0
v -0.675000012 1.37142861 0
v -0.449999988 1.37142861 0
v -0.225000024 1.37142861 0
v 0 1.37142861 0
v 0.225000024 1.37142861 0
v 0.450000048 1.37142861 0
v 0.675000072 1.37142861 0
v 0.899999976 1.37142861 0
v 1.12500012 1.37142861 0
vn -0 0 -1
vn -0 0 -1
vn -0 0 -1
vn -0 0 -1
vn -0 0 -1
vn -0 0 -1
vn -0 0 -1
vn -0 0 -1
vn -0 0 -1
vn -0 0 -1
vn -0 0 -1
vn -0 0 -1
vn -0 0 -1
vn -0 0 -1
vn -0 0 -1
vn -0 0 -1
vn -0 0 -1
vn -0 0 -1
vn -0 0 -1
vn -0 0 -1
vn -0 0 -1
vn -0 0 -1
vn -0 0 -1
vn -0 0 -1
vn -0 0 -1
vn -0 0 -1
vn -0 0 -1
vn -0 0 -1
vn -0 0 -1
vn -0 0 -1
vn -0 0 -1
vn -0 0 -1
vn -0 0 -1
vn -0 0 -1
vn -0 0 -1
vn -0 0 -1
vn -0 0 -1
vn -0 0 -1
vn -0 0 -1
vn -0 0 -1
vn -0 0 -1
vn -0 0 -1
vn -0 0 -1
vn -0 0 -1
vn -0 0 -1
vn -0 0 -1
vn -0 0 -1
vn -0 0 -1
vn -0 0 -1
vn -0 0 -1
vn -0 0 -1
vn -0 0 -1
vn -0 0 -1
vn -0 0 -1
vn -0 0 -1
vn -0 0 -1
vn -0 0 -1
vn -0 0 -1
vn -0 0 -1
vn -0 0 -1
vn -0 0 -1
vn -0 0 -1
vn -0 0 -1
vn -0 0 -1
vn -0 0 -1
vn -0 0 -1
vn -0 0 -1
vn -0 0 -1
vn -0 0 -1
vn -0 0 -1
vn -0 0 -1
vn -0 0 -1
vn -0 0 -1
vn -0 0 -1
vn -0 0 -1
vn -0 0 -1
vn -0 0 -1
vn -0 0 -1
vn -0 0 -1
vn -0 0 -1
vn -0 0 -1
vn -0 0 -1
vn -0 0 -1
vn -0 0 -1
vn -0 0 -1
vn -0 0 -1
vn -0 0 -1
vn -0 0 -1
vn -0 0 -1
vn -0 0 -1
vn -0 0 -1
vn -0 0 -1
vn -0 0 -1
vn -0 0 -1
vn -0 0 -1
vn -0 0 -1
vn -0 0 -1
vn -0 0 -1
vn -0 0 -1
vn -0 0 -1
vn -0 0 -1
vn -0 0 -1
vn -0 0 -1
vn -0 0 -1
vn -0 0 -1
vn -0 0 -1
vn -0 0 -1
vn -0 0 -1
vn -0 0 -1
vn -0 0 -1
vn -0 0 -1
vn -0 0 -1
vn -0 0 -1
vn -0 0 -1
vn -0 0 -1
vn -0 0 -1
vn -0 0 -1
vn -0 0 -1
vn -0 0 -1
vn -0 0 -1
vn -0 0 -1
vn -0 0 -1
vn -0 0 -1
vn -0 0 -1
vn -0 0 -1
vn -0 0 -1
vn -0 0 -1
vn -0 0 -1
vn -0 0 -1
vn -0 0 -1
vn -0 0 -1
vn -0 0 -1
vn -0 0 -1
vn -0 0 -1
vn -0 0 -1
vn -0 0 -1
vn -0 0 -1
vn -0 0 -1
vn -0 0 -1
vn -0 0 -1
vn -0 0 -1
vn -0 0 -1
vn -0 0 -1
vn -0 0 -1
vn -0 0 -1
vn -0 0 -1
vn -0 0 -1
vn -0 0 -1
vn -0 0 -1
vn -0 0 -1
vn -0 0 -1
vn -0 0 -1
vn -0 0 -1
vn -0 0 -1
vn -0 0 -1
vn -0 0 -1
vn -0 0 -1
vn -0 0 -1
vn -0 0 -1
vn -0 0 -1
vn -0 0 -1
vn -0 0 -1
vn -0 0 -1
vn -0 0 -1
vn -0 0 -1
vn -0 0 -1
vn -0 0 -1
vn -0 0 -1
vn -0 0 -1
vn -0 0 -1
vn -0 0 -1
vn -0 0 -1
vn -0 0 -1
vn -0 0 -1
vn -0 0 -1
vn -0 0 -1
vn -0 0 -1
vn -0 0 -1
vn -0 0 -1
vn -0 0 -1
vn -0 0 -1
vn -0 0 -1
vn -0 0 -1
vn -0 0 -1
vn -0 0 -1
vn -0 0 -1
vn -0 0 -1
vn -0 0 -1
vn -0 0 -1
vn -0 0 -1
vn -0 0 -1
vn -0 0 -1
vn -0 0 -1
vn -0 0 -1
vn -0 0 -1
vn -0 0 -1
vn -0 0 -1
vn -0 0 -1
vn -0 0 -1
vn -0 0 -1
g Grid
f 1//1 12//2 13//3 2//4
f 2//5 13//6 14//7 3//8
f 3//9 14//10 15//11 4//12
f 4//13 15//14 16//15 5//16
f 5//17 16//18 17//19 6//20
f 6//21 17//22 18//23 7//24
f 7//25 18//26 19//27 8//28
f 8//29 19//30 20//31 9//32
f 9//33 20//34 21//35 10//36
f 10//37 21//38 22//39 11//40
f 12//41 23//42 24//43 13//44
f 13//45 24//46 25//47 14//48
f 14//49 25//50 26//51 15//52
f 15//53 26//54 27//55 16//56
f 16//57 27//58 28//59 17//60
f 17//61 28//62 29//63 18//64
f 18//65 29//66 30//67 19//68
f 19//69 30//70 31//71 20//72
f 20//73 31//74 32//75 21//76
f 21//77 32//78 33//79 22//80
f 23//81 34//82 35//83 24//84
f 24//85 35//86 36//87 25//88
f 25//89 36//90 37//91 26//92
f 26//93 37//94 38//95 27//96
f 27//97 38//98 39//99 28//100
f 28//101 39//102 40//103 29//104
f 29//105 40//106 41//107 30//108
f 30//109 41//110 42//111 31//112
f 31//113 42//114 43//115 32//116
f 32//117 43//118 44//119 33//120
f 34//121 45//122 46//123 35//124
f 35//125 46//126 47//127 36//128
f 36//129 47//130 48//131 37//132
f 37//133 48//134 49//135 38//136
f 38//137 49//138 50//139 39//140
f 39//141 50//142 51//143 40//144
f 40//145 51//146 52//147 41//148
f 41//149 52//150 53//151 42//152
f 42//153 53//154 54//155 43//156
f 43//157 54//158 55//159 44//160
f 45//161 56//162 57//163 46//164
f 46//165 57//166 58//167 47//168
f 47//169 58//170 59//171 48//172
f 48//173 59//174 60//175 49//176
f 49//177 60//178 61//179 50//180
f 50//181 61//182 62//183 51//184
f 51//185 62//186 63//187 52//188
f 52//189 63//190 64//191 53//192
f 53//193 64//194 65//195 54//196
f 54//197 65//198 66//199 55//200
